# Blender v2.79 (sub 0) OBJ File: ''
# www.blender.org
o Cube.001_Cube.004
v -4.418742 0.311879 -1.062440
v -4.862231 1.497040 -0.861012
v -3.981999 2.278102 -0.556576
v -3.144271 0.509390 0.253787
v -4.667561 0.344679 0.081197
v -3.546326 0.509392 -1.646371
v -2.438298 0.790857 -1.256299
v -2.709437 1.153890 0.095295
v -4.387052 1.492261 0.593454
v -4.888390 1.034252 0.230456
v -3.949405 1.278377 -1.735496
v -3.122999 1.850846 0.117500
v -2.728239 1.843463 -1.229598
v 1.479393 -0.034554 5.992564
v 1.165368 0.247320 5.992564
v 1.479393 -0.034554 1.678868
v 1.165368 0.247320 1.678868
v 6.189120 5.212376 5.992564
v 5.875094 5.494249 5.992564
v 6.189120 5.212376 1.678868
v 5.875094 5.494249 1.678868
v 6.020818 5.434924 4.308096
v 6.020818 5.434924 3.531097
v 6.725068 5.434924 4.308096
v 6.725068 5.434924 3.531096
v -1.507147 0.179968 -4.793223
v -1.507147 1.281673 -4.793223
v -1.507147 0.179968 -5.894929
v -1.507147 1.281673 -5.894929
v 2.395402 0.179969 -4.793225
v 2.395402 1.281674 -4.793225
v 2.395402 0.179969 -5.894931
v 2.395402 1.281674 -5.894931
v -6.631409 -0.163660 -6.680534
v -6.631409 0.237254 -6.680534
v -6.631411 -0.163661 6.941129
v -6.631410 0.237252 6.941129
v 7.352849 -0.163658 -6.680542
v 7.352849 0.237254 -6.680542
v 7.352848 -0.163660 6.941122
v 7.352848 0.237253 6.941122
v -1.507147 0.237253 -4.793223
v 2.395402 0.237254 -4.793225
v -1.507147 0.237253 -5.894929
v 2.395402 0.237254 -5.894931
v 6.020817 0.237253 4.308095
v 6.725066 0.237253 4.308095
v 6.020817 0.237253 3.531096
v 6.725066 0.237253 3.531095
v 1.723371 0.237253 4.689345
v 1.723371 0.237252 5.992563
v 6.189120 5.212376 3.531097
v 6.020818 5.024877 3.531097
v 6.020818 5.024877 4.308096
v 6.189120 5.212376 4.308096
v 1.723372 0.237253 1.678867
v 1.176582 0.237252 5.992563
v 1.176583 0.237253 1.678868
v 1.176582 0.237253 4.836716
v 6.020818 5.363447 4.308096
v 6.020818 5.363447 3.531097
v 1.695495 0.237253 1.678867
v 6.054283 5.333408 3.531096
v 1.176583 0.237253 1.832929
v 1.723372 0.237253 1.902330
v -4.357680 0.237253 -0.085148
v -4.232113 0.237253 -0.975042
v -3.266651 0.237254 -0.130165
v -3.486152 0.237253 -1.167549
v -3.051411 0.237253 -0.838670
v -4.418742 0.311879 -1.062440
v -4.862231 1.497040 -0.861012
v -3.981999 2.278102 -0.556576
v -3.413800 -0.089961 -0.591824
v -3.144271 0.509390 0.253787
v -4.667561 0.344679 0.081197
v -3.546326 0.509392 -1.646371
v -2.438298 0.790857 -1.256299
v -2.709437 1.153890 0.095295
v -4.387052 1.492261 0.593454
v -4.888390 1.034252 0.230456
v -3.949405 1.278377 -1.735496
v -3.122999 1.850846 0.117500
v -2.728239 1.843463 -1.229598
vt 0.409505 0.840953
vt 0.409529 0.841636
vt 0.409464 0.844401
vt 0.409450 0.837601
vt 0.409410 0.837990
vt 0.409458 0.843431
vt 0.409501 0.841889
vt 0.409488 0.838653
vt 0.409557 0.836026
vt 0.409398 0.840899
vt 0.409489 0.844072
vt 0.409548 0.839845
vt 0.409461 0.843579
vt 0.409563 0.837574
vt 0.455765 0.800601
vt 0.408818 0.847547
vt 0.408818 0.800601
vt 0.455765 0.800601
vt 0.408818 0.847547
vt 0.408818 0.800601
vt 0.455765 0.800601
vt 0.408818 0.847547
vt 0.408818 0.800601
vt 0.455765 0.800601
vt 0.408818 0.847547
vt 0.408818 0.800601
vt 0.455765 0.800601
vt 0.408818 0.847547
vt 0.408818 0.800601
vt 0.408877 0.817193
vt 0.408857 0.817342
vt 0.408857 0.817343
vt 0.408868 0.817092
vt 0.409229 0.803634
vt 0.408914 0.816383
vt 0.408878 0.816384
vt 0.408870 0.817098
vt 0.411636 0.818845
vt 0.411608 0.823125
vt 0.411497 0.818862
vt 0.411332 0.805129
vt 0.411285 0.800824
vt 0.411151 0.805140
vt 0.410996 0.800824
vt 0.411730 0.823080
vt 0.411454 0.818669
vt 0.411152 0.800602
vt 0.411669 0.818651
vt 0.409998 0.846961
vt 0.409971 0.846611
vt 0.408942 0.846243
vt 0.408820 0.847546
vt 0.410910 0.800602
vt 0.409975 0.801456
vt 0.409541 0.801308
vt 0.410364 0.802012
vt 0.409569 0.821773
vt 0.409146 0.821730
vt 0.409465 0.837091
vt 0.410730 0.831017
vt 0.409073 0.820351
vt 0.409372 0.805548
vt 0.408867 0.817096
vt 0.409304 0.805679
vt 0.409626 0.840869
vt 0.409589 0.840224
vt 0.409512 0.836238
vt 0.408818 0.800601
vt 0.455765 0.800601
vt 0.455765 0.847547
vt 0.408818 0.800601
vt 0.455765 0.847547
vt 0.408818 0.800601
vt 0.455765 0.800601
vt 0.455765 0.847547
vt 0.455765 0.800601
vt 0.455765 0.847547
vt 0.408818 0.800601
vt 0.455765 0.800601
vt 0.455765 0.847547
vt 0.408818 0.800601
vt 0.455765 0.800601
vt 0.455765 0.847547
vt 0.408818 0.800601
vt 0.455765 0.800601
vt 0.408818 0.800601
vt 0.408818 0.800601
vt 0.408818 0.800601
vt 0.455765 0.800601
vt 0.408818 0.800601
vt 0.455765 0.847547
vt 0.408818 0.800601
vt 0.455765 0.847547
vt 0.408818 0.800601
vt 0.455765 0.800601
vt 0.455765 0.800601
vt 0.455765 0.847547
vt 0.408818 0.800601
vt 0.455765 0.800601
vt 0.455765 0.847547
vt 0.455765 0.847547
vt 0.455765 0.847547
vt 0.455765 0.800601
vt 0.455765 0.847547
vt 0.455765 0.847547
vt 0.455765 0.847547
vt 0.455765 0.847547
vt 0.455765 0.847547
vt 0.455765 0.847547
vt 0.408851 0.817186
vt 0.408864 0.817096
vt 0.408854 0.817173
vt 0.409622 0.803242
vt 0.411127 0.800653
vt 0.410993 0.817704
vt 0.408970 0.820096
vt 0.409414 0.820169
vt 0.410993 0.830733
vt 0.409574 0.821835
vt 0.409475 0.820103
vt 0.409530 0.820271
vt 0.410867 0.817951
vt 0.408999 0.821573
vn -0.9293 -0.3149 -0.1931
vn 0.2915 0.0383 0.9558
vn -0.7023 -0.1444 -0.6970
vn 0.3185 0.0573 -0.9462
vn -0.0252 0.8295 0.5579
vn -0.6891 0.6880 0.2274
vn -0.4067 0.6912 -0.5974
vn -0.0836 0.7589 -0.6458
vn 0.3756 0.9208 0.1050
vn 0.3340 0.1157 -0.9354
vn -0.7447 0.6207 0.2453
vn 0.3097 0.1539 0.9383
vn 0.8376 0.4893 0.2428
vn 0.9577 0.2607 0.1221
vn -0.4687 -0.3402 -0.8153
vn -0.9514 -0.2746 -0.1392
vn -0.3590 -0.3058 0.8818
vn -0.0613 -0.3943 0.9169
vn 0.8241 -0.4834 0.2952
vn 0.3733 -0.7856 -0.4934
vn -0.6680 -0.7442 0.0000
vn 0.0000 0.0000 -1.0000
vn 0.6680 0.7442 0.0000
vn -0.0000 0.0000 1.0000
vn 0.7442 -0.6680 0.0000
vn -0.7442 0.6680 0.0000
vn 1.0000 -0.0000 0.0000
vn -1.0000 0.0000 0.0000
vn 0.0000 -1.0000 0.0000
vn -0.0000 1.0000 0.0000
vn -0.3508 -0.9352 -0.0495
vn -0.1235 -0.8693 -0.4786
vn 0.7325 -0.6434 0.2225
vn 0.0236 -0.8192 0.5731
s off
f 1/1/1 5/2/1 2/3/1
f 4/4/2 8/5/2 9/6/2
f 1/1/3 2/3/3 11/7/3
f 6/8/4 11/7/4 7/9/4
f 9/6/5 12/10/5 3/11/5
f 2/3/6 9/6/6 3/11/6
f 11/7/7 2/3/7 3/11/7
f 13/12/8 11/7/8 3/11/8
f 12/10/9 13/12/9 3/11/9
f 7/9/10 11/7/10 13/12/10
f 10/13/11 9/6/11 2/3/11
f 9/6/12 8/5/12 12/10/12
f 8/5/13 13/12/13 12/10/13
f 8/5/14 7/9/14 13/12/14
f 6/8/15 1/1/15 11/7/15
f 2/3/16 5/2/16 10/13/16
f 10/13/17 5/2/17 9/6/17
f 5/2/18 4/4/18 9/6/18
f 4/4/19 7/9/19 8/5/19
f 7/9/20 69/14/20 6/8/20
f 15/15/21 16/16/21 14/17/21
f 17/18/22 20/19/22 16/20/22
f 21/21/23 18/22/23 20/23/23
f 19/24/24 14/25/24 18/26/24
f 20/27/25 14/25/25 16/20/25
f 17/18/26 19/28/26 21/29/26
f 60/30/27 23/31/27 22/32/27
f 53/33/24 49/34/24 25/35/24
f 49/34/28 24/36/28 25/35/28
f 24/36/22 55/37/22 22/32/22
f 23/31/29 24/36/29 22/32/29
f 42/38/28 29/39/28 44/40/28
f 44/40/22 33/41/22 45/42/22
f 45/42/27 31/43/27 43/44/27
f 43/44/24 27/45/24 42/38/24
f 28/46/29 30/47/29 26/48/29
f 29/39/30 31/43/30 33/41/30
f 35/49/27 36/50/27 34/51/27
f 37/52/22 40/53/22 36/50/22
f 41/54/28 38/55/28 40/53/28
f 39/56/24 34/51/24 38/55/24
f 40/53/30 34/51/30 36/50/30
f 64/57/29 59/58/29 68/59/29
f 39/56/29 44/60/29 35/49/29
f 51/61/29 46/62/29 41/54/29
f 54/63/27 48/64/27 53/33/27
f 66/65/31 1/1/31 67/66/31
f 67/66/32 6/8/32 69/14/32
f 66/65/29 37/52/29 35/49/29
f 70/67/33 4/4/33 68/59/33
f 66/65/34 4/4/34 5/2/34
f 74/68/31 76/69/31 71/70/31
f 71/71/1 76/69/1 72/72/1
f 75/73/2 79/74/2 80/75/2
f 71/71/3 72/76/3 82/77/3
f 77/78/4 82/79/4 78/80/4
f 80/81/5 83/82/5 73/83/5
f 72/84/6 80/85/6 73/83/6
f 82/86/7 72/76/7 73/83/7
f 84/87/8 82/79/8 73/83/8
f 83/88/9 84/89/9 73/83/9
f 78/90/10 82/79/10 84/91/10
f 81/92/11 80/85/11 72/72/11
f 80/81/12 79/74/12 83/93/12
f 79/94/13 84/89/13 83/93/13
f 79/94/14 78/95/14 84/91/14
f 77/78/15 71/96/15 82/77/15
f 72/84/16 76/69/16 81/97/16
f 81/92/17 76/69/17 80/75/17
f 76/98/18 75/99/18 80/75/18
f 75/73/19 78/95/19 79/100/19
f 74/68/32 71/96/32 77/101/32
f 74/68/34 75/99/34 76/102/34
f 78/90/20 74/103/20 77/101/20
f 74/68/33 78/95/33 75/104/33
f 7/9/20 70/67/20 69/14/20
f 15/15/21 17/105/21 16/16/21
f 17/18/22 21/106/22 20/19/22
f 21/21/23 19/107/23 18/22/23
f 19/24/24 15/108/24 14/25/24
f 20/27/25 18/109/25 14/25/25
f 17/18/26 15/108/26 19/28/26
f 60/30/27 61/110/27 23/31/27
f 25/35/24 23/31/24 52/111/24
f 61/110/24 63/112/24 23/31/24
f 48/64/24 49/34/24 53/33/24
f 52/111/24 53/33/24 25/35/24
f 23/31/24 63/112/24 52/111/24
f 49/34/28 47/113/28 24/36/28
f 24/36/22 47/113/22 54/63/22
f 46/62/22 54/63/22 47/113/22
f 55/37/22 60/30/22 22/32/22
f 24/36/22 54/63/22 55/37/22
f 23/31/29 25/35/29 24/36/29
f 28/46/28 26/48/28 42/38/28
f 42/38/28 27/45/28 29/39/28
f 44/40/28 28/46/28 42/38/28
f 32/114/22 28/46/22 45/42/22
f 44/40/22 29/39/22 33/41/22
f 45/42/22 28/46/22 44/40/22
f 30/47/27 32/114/27 45/42/27
f 45/42/27 33/41/27 31/43/27
f 43/44/27 30/47/27 45/42/27
f 26/48/24 30/47/24 42/38/24
f 43/44/24 31/43/24 27/45/24
f 42/38/24 30/47/24 43/44/24
f 28/46/29 32/114/29 30/47/29
f 29/39/30 27/45/30 31/43/30
f 35/49/27 37/52/27 36/50/27
f 37/52/22 41/54/22 40/53/22
f 41/54/28 39/56/28 38/55/28
f 39/56/24 35/49/24 34/51/24
f 40/53/30 38/55/30 34/51/30
f 39/56/29 41/54/29 49/34/29
f 41/54/29 47/113/29 49/34/29
f 43/115/29 39/56/29 49/34/29
f 48/64/29 50/116/29 65/117/29
f 43/115/29 49/34/29 48/64/29
f 69/14/29 44/60/29 42/118/29
f 42/118/29 43/115/29 58/119/29
f 48/64/29 65/117/29 56/120/29
f 43/115/29 48/64/29 56/120/29
f 70/67/29 69/14/29 42/118/29
f 37/52/29 66/65/29 68/59/29
f 68/59/29 70/67/29 58/119/29
f 43/115/29 56/120/29 62/121/29
f 58/119/29 64/57/29 68/59/29
f 43/115/29 62/121/29 58/119/29
f 59/58/29 37/52/29 68/59/29
f 70/67/29 42/118/29 58/119/29
f 39/56/29 43/115/29 45/122/29
f 45/122/29 44/60/29 39/56/29
f 37/52/29 59/58/29 57/123/29
f 51/61/29 50/116/29 46/62/29
f 37/52/29 57/123/29 41/54/29
f 46/62/29 47/113/29 41/54/29
f 50/116/29 48/64/29 46/62/29
f 41/54/29 57/123/29 51/61/29
f 54/63/27 46/62/27 48/64/27
f 66/65/31 5/2/31 1/1/31
f 67/66/32 1/1/32 6/8/32
f 35/49/29 44/60/29 69/14/29
f 67/66/29 66/65/29 35/49/29
f 35/49/29 69/14/29 67/66/29
f 70/67/33 7/9/33 4/4/33
f 66/65/34 68/59/34 4/4/34
