# Blender v2.79 (sub 0) OBJ File: ''
# www.blender.org
o Cube
v 8.063773 -0.106668 -7.251002
v 8.063773 -0.106668 7.251002
v -8.063774 -0.106668 7.251001
v -8.063770 -0.106668 -7.251005
v 8.063777 0.106668 -7.250998
v 8.063767 0.106668 7.251007
v -8.063776 0.106668 7.251000
v -8.063772 0.106668 -7.251002
vt 0.050450 0.804712
vt 0.018054 0.837108
vt 0.018054 0.804712
vt 0.050450 0.804712
vt 0.018054 0.837108
vt 0.018054 0.804712
vt 0.050450 0.804712
vt 0.018054 0.837108
vt 0.050450 0.804712
vt 0.018054 0.837108
vt 0.018054 0.804712
vt 0.050450 0.804712
vt 0.018054 0.804712
vt 0.050450 0.804712
vt 0.018054 0.837108
vt 0.050450 0.837108
vt 0.050450 0.837108
vt 0.050450 0.837108
vt 0.050450 0.837108
vt 0.050450 0.837108
vn 0.0000 -1.0000 0.0000
vn 0.0000 1.0000 -0.0000
vn 1.0000 -0.0000 0.0000
vn -0.0000 -0.0000 1.0000
vn -1.0000 -0.0000 -0.0000
vn 0.0000 0.0000 -1.0000
s off
f 2/1/1 4/2/1 1/3/1
f 8/4/2 6/5/2 5/6/2
f 5/7/3 2/8/3 1/3/3
f 6/9/4 3/10/4 2/11/4
f 7/12/5 4/2/5 3/13/5
f 1/14/6 8/15/6 5/6/6
f 2/1/1 3/16/1 4/2/1
f 8/4/2 7/17/2 6/5/2
f 5/7/3 6/18/3 2/8/3
f 6/9/4 7/17/4 3/10/4
f 7/12/5 8/19/5 4/2/5
f 1/14/6 4/20/6 8/15/6
