# Blender v2.79 (sub 0) OBJ File: ''
# www.blender.org
o Cube
v -6.963165 7.360439 -0.113724
v 6.963166 7.360439 -0.113724
v 6.963164 -7.360440 -0.113724
v -6.963168 -7.360436 -0.113724
v -6.963162 7.360443 0.113724
v 6.963170 7.360435 0.113724
v 6.963163 -7.360442 0.113724
v -6.963166 -7.360439 0.113724
vt 0.146445 0.918447
vt 0.096728 0.968164
vt 0.096728 0.918447
vt 0.146445 0.918447
vt 0.096728 0.968164
vt 0.096728 0.918447
vt 0.146445 0.918447
vt 0.096728 0.968164
vt 0.146445 0.918447
vt 0.096728 0.968164
vt 0.096728 0.918447
vt 0.096728 0.918447
vt 0.146445 0.968164
vt 0.146445 0.918447
vt 0.096728 0.968164
vt 0.146445 0.968164
vt 0.146445 0.968164
vt 0.146445 0.968164
vt 0.146445 0.918447
vt 0.146445 0.968164
vn 0.0000 0.0000 -1.0000
vn 0.0000 0.0000 1.0000
vn 0.0000 1.0000 -0.0000
vn 1.0000 -0.0000 -0.0000
vn -0.0000 -1.0000 -0.0000
vn -1.0000 0.0000 0.0000
s off
f 2/1/1 4/2/1 1/3/1
f 8/4/2 6/5/2 5/6/2
f 5/7/3 2/8/3 1/3/3
f 6/9/4 3/10/4 2/11/4
f 3/12/5 8/13/5 4/2/5
f 1/14/6 8/15/6 5/6/6
f 2/1/1 3/16/1 4/2/1
f 8/4/2 7/17/2 6/5/2
f 5/7/3 6/18/3 2/8/3
f 6/9/4 7/17/4 3/10/4
f 3/12/5 7/19/5 8/13/5
f 1/14/6 4/20/6 8/15/6
