# Blender v2.79 (sub 0) OBJ File: ''
# www.blender.org
o Icosphere
v 0.651327 -0.221408 0.663433
v -0.988314 0.163359 -1.069477
v 1.045248 0.355938 0.522387
v -0.564155 0.502509 1.046119
v -0.826478 2.554847 -0.517843
v -0.348843 2.605917 -0.928514
v 0.448831 2.834065 -0.644357
v -0.348169 3.341900 -0.359098
v -0.943392 2.356135 0.052646
v -0.392025 2.819313 0.506258
v 0.697933 2.483044 0.108137
v -0.376181 0.656078 -1.414609
v -0.841768 1.629003 -0.778318
v 0.284697 2.036891 0.715295
v 0.897685 1.784417 -0.433518
v 0.695485 0.350977 -1.189089
v -0.363325 -0.013817 -1.411676
v -1.417131 0.440903 -0.271167
v -0.774561 -0.190887 0.760997
v 0.929981 -0.221407 -0.632491
v -0.178318 0.282724 1.103561
v 0.985894 0.484528 -0.902177
v -0.143056 -0.736275 -0.431932
v 0.334523 2.061706 -0.959302
v 0.047819 3.428560 -0.082557
v -1.123144 -0.335285 -0.231848
v -1.199684 0.562583 0.389183
v -0.711153 1.973784 0.597703
v -0.172412 1.496042 -1.162176
v 0.158638 3.048198 0.346560
vt 0.105116 0.798402
vt 0.137940 0.798402
vt 0.137940 0.831227
vt 0.105116 0.798402
vt 0.137940 0.798402
vt 0.137940 0.831227
vt 0.105116 0.798402
vt 0.137940 0.798402
vt 0.137940 0.831227
vt 0.105116 0.798402
vt 0.137940 0.798402
vt 0.137940 0.831227
vt 0.105116 0.798402
vt 0.137940 0.798402
vt 0.137940 0.831227
vt 0.105116 0.798402
vt 0.137940 0.798402
vt 0.137940 0.831227
vt 0.105116 0.798402
vt 0.137940 0.831227
vt 0.105116 0.798402
vt 0.137940 0.798402
vt 0.137940 0.831227
vt 0.105116 0.798402
vt 0.137940 0.831227
vt 0.105116 0.798402
vt 0.137940 0.798402
vt 0.137940 0.831227
vt 0.105116 0.798402
vt 0.137940 0.798402
vt 0.137940 0.831227
vt 0.105116 0.798402
vt 0.137940 0.798402
vt 0.105116 0.798402
vt 0.137940 0.798402
vt 0.137940 0.831227
vt 0.105116 0.798402
vt 0.137940 0.831227
vt 0.105116 0.798402
vt 0.137940 0.831227
vt 0.105116 0.831227
vt 0.105116 0.798402
vt 0.105116 0.798402
vt 0.105116 0.831227
vt 0.105116 0.798402
vt 0.137940 0.798402
vt 0.137940 0.831227
vt 0.105116 0.798402
vt 0.137940 0.831227
vt 0.137940 0.831227
vt 0.137940 0.798402
vt 0.137940 0.831227
vt 0.137940 0.831227
vt 0.105116 0.798402
vt 0.137940 0.798402
vt 0.137940 0.831227
vt 0.137940 0.798402
vt 0.137940 0.831227
vt 0.137940 0.798402
vt 0.105116 0.798402
vt 0.137940 0.831227
vt 0.137940 0.798402
vt 0.105116 0.798402
vt 0.137940 0.798402
vt 0.105116 0.798402
vt 0.137940 0.831227
vt 0.105116 0.798402
vt 0.137940 0.831227
vt 0.137940 0.831227
vt 0.105116 0.798402
vt 0.137940 0.798402
vt 0.137940 0.798402
vt 0.137940 0.831227
vt 0.105116 0.798402
vt 0.137940 0.798402
vt 0.137940 0.831227
vt 0.137940 0.831227
vt 0.137940 0.798402
vt 0.105116 0.798402
vt 0.137940 0.831227
vn 0.2470 -0.7526 -0.6105
vn -0.0193 0.2209 0.9751
vn -0.9429 0.1865 0.2761
vn -0.6043 0.2129 -0.7678
vn 0.6275 0.2322 -0.7432
vn 0.2604 0.7501 -0.6079
vn -0.8550 0.5185 0.0054
vn -0.7519 0.3446 0.5621
vn 0.1355 0.2247 -0.9650
vn -0.8372 0.1859 -0.5143
vn -0.8353 0.2144 0.5063
vn -0.8801 -0.3154 0.3549
vn -0.8793 -0.3238 0.3492
vn -0.2977 -0.2844 0.9113
vn 0.7368 -0.2914 -0.6101
vn -0.4647 -0.7594 -0.4555
vn 0.0093 -0.9075 0.4198
vn -0.3235 -0.9136 0.2464
vn 0.2603 0.2194 -0.9403
vn 0.9753 0.1833 0.1233
vn 0.7085 0.2446 0.6620
vn -0.1300 0.2772 0.9520
vn -0.8919 0.2806 -0.3546
vn -0.4119 0.3525 -0.8403
vn 0.7250 0.2766 -0.6307
vn 0.6493 0.3307 0.6849
vn 0.2284 0.3384 -0.9129
vn 0.9206 0.3668 -0.1336
vn 0.8249 0.5653 -0.0094
vn 0.1062 0.6084 -0.7865
vn -0.5975 0.4910 -0.6339
vn -0.4730 0.7646 0.4378
vn -0.7488 0.5835 0.3144
vn -0.1077 0.7300 0.6749
vn 0.1221 0.3534 0.9275
vn 0.7492 0.5797 0.3204
vn 0.7159 0.1701 -0.6771
vn -0.4785 0.1074 -0.8715
vn -0.6498 0.2158 -0.7289
vn -0.9818 0.0663 -0.1781
vn -0.1255 0.1534 0.9802
vn -0.7050 0.1414 0.6950
vn 0.4231 0.0879 0.9018
vn 0.9962 0.0800 -0.0343
vn 0.3531 -0.5739 -0.7389
vn 0.2058 -0.0003 -0.9786
vn -0.4831 -0.0131 -0.8755
vn -0.8711 -0.3475 -0.3471
vn -0.7202 -0.0655 0.6907
vn 0.9939 -0.0979 -0.0502
vn 0.8325 -0.5243 0.1790
vn 0.4451 -0.8904 0.0957
vn 0.0405 -0.6185 0.7847
vn 0.4315 -0.0748 0.8990
vn -0.4126 -0.7520 -0.5141
vn 0.1957 0.1710 -0.9657
s off
f 17/1/1 20/2/1 23/3/1
f 21/4/2 14/5/2 4/6/2
f 27/7/3 9/8/3 18/9/3
f 2/10/4 13/11/4 12/12/4
f 16/13/5 24/14/5 22/15/5
f 7/16/6 8/17/6 25/18/6
f 5/19/7 9/8/7 8/20/7
f 9/21/8 28/22/8 10/23/8
f 6/24/9 24/14/9 29/25/9
f 13/26/10 2/27/10 18/9/10
f 27/7/11 28/22/11 9/28/11
f 18/29/12 26/30/12 19/31/12
f 19/32/13 27/33/13 18/9/13
f 4/34/14 19/35/14 21/36/14
f 22/37/15 20/2/15 16/38/15
f 23/39/16 2/40/16 17/41/16
f 1/42/17 19/35/17 23/3/17
f 19/32/18 26/30/18 23/3/18
f 29/43/19 16/38/19 12/44/19
f 3/45/20 15/46/20 11/47/20
f 11/48/21 14/5/21 3/49/21
f 4/34/22 14/5/22 28/50/22
f 9/21/23 13/11/23 18/9/23
f 29/43/24 12/51/24 13/52/24
f 22/37/25 24/14/25 15/53/25
f 14/54/26 11/55/26 30/56/26
f 6/24/27 7/57/27 24/58/27
f 7/16/28 11/55/28 15/53/28
f 7/16/29 25/59/29 11/47/29
f 8/60/30 7/57/30 6/61/30
f 5/19/31 8/17/31 6/61/31
f 8/60/32 10/62/32 25/18/32
f 9/21/33 10/62/33 8/20/33
f 10/63/34 30/64/34 25/18/34
f 30/65/35 10/62/35 14/66/35
f 11/48/36 25/59/36 30/56/36
f 15/67/37 24/14/37 7/68/37
f 29/43/38 13/11/38 6/61/38
f 6/24/39 13/11/39 5/69/39
f 5/19/40 13/11/40 9/28/40
f 28/70/41 14/5/41 10/23/41
f 28/70/42 27/33/42 4/6/42
f 14/54/43 21/71/43 3/49/43
f 15/67/44 3/72/44 22/15/44
f 16/13/45 20/2/45 17/73/45
f 12/74/46 16/75/46 17/73/46
f 17/1/47 2/27/47 12/12/47
f 18/29/48 2/27/48 26/76/48
f 4/34/49 27/33/49 19/31/49
f 22/37/50 3/72/50 20/77/50
f 3/45/51 1/78/51 20/77/51
f 20/79/52 1/78/52 23/3/52
f 21/4/53 19/35/53 1/80/53
f 3/45/54 21/71/54 1/80/54
f 23/39/55 26/30/55 2/40/55
f 29/43/56 24/14/56 16/38/56
